<svg xmlns="http://www.w3.org/2000/svg" width="168.914" height="184.144" viewBox="0 0 168.914 184.144">
  <g id="Group_54" data-name="Group 54" transform="translate(-1011.543 -1946.537)">
    <path id="solid_lemon" data-name="solid lemon" d="M51.7,2.428C49.259-.014,45.951-.627,43.762.648,37.535,4.275,24.6-4.963,9.819,9.819S4.275,37.535.648,43.762c-1.275,2.189-.662,5.5,1.78,7.939s5.75,3.054,7.939,1.779c6.227-3.627,19.161,5.611,33.943-9.17s5.543-27.716,9.171-33.943c1.275-2.189.662-5.5-1.78-7.939ZM25.783,10.1C19.631,11.636,11.637,19.63,10.1,25.783a1.692,1.692,0,1,1-3.282-.82c1.842-7.368,10.766-16.3,18.146-18.146a1.691,1.691,0,0,1,.821,3.282Z" transform="matrix(0.966, 0.259, -0.259, 0.966, 1074.766, 1988.573)" fill="#e87d6f" stroke="#000" stroke-width="1"/>
    <path id="solid_lemon-2" data-name="solid lemon" d="M51.7,2.428C49.259-.014,45.95-.627,43.762.648,37.534,4.275,24.6-4.963,9.818,9.819S4.275,37.535.648,43.762c-1.275,2.189-.662,5.5,1.78,7.939s5.75,3.054,7.939,1.779c6.227-3.627,19.161,5.611,33.943-9.17s5.543-27.716,9.171-33.943c1.275-2.189.662-5.5-1.78-7.939ZM25.783,10.1C19.631,11.636,11.637,19.63,10.1,25.783a1.692,1.692,0,1,1-3.282-.82c1.842-7.368,10.766-16.3,18.146-18.146a1.691,1.691,0,0,1,.821,3.282Z" transform="translate(1039.822 2032.48)" fill="#e87d6f" stroke="#000" stroke-width="1"/>
    <path id="solid_lemon-3" data-name="solid lemon" d="M51.7,2.428C49.259-.014,45.951-.627,43.762.648,37.535,4.275,24.6-4.963,9.819,9.819S4.275,37.535.648,43.762c-1.275,2.189-.662,5.5,1.78,7.939s5.75,3.054,7.939,1.779c6.227-3.627,19.161,5.611,33.943-9.17s5.543-27.716,9.171-33.943C54.755,8.178,54.142,4.869,51.7,2.428ZM25.783,10.1C19.631,11.636,11.637,19.63,10.1,25.783a1.692,1.692,0,1,1-3.282-.82c1.842-7.368,10.766-16.3,18.146-18.146a1.691,1.691,0,0,1,.821,3.282Z" transform="translate(1157.891 2052.34) rotate(120)" fill="#e87d6f" stroke="#000" stroke-width="1"/>
    <g id="Layer_2" data-name="Layer 2" transform="matrix(0.966, 0.259, -0.259, 0.966, 1051.635, 1946.537)">
      <g id="Layer_1" data-name="Layer 1" transform="translate(0 0)">
        <path id="Path_656" data-name="Path 656" d="M0,87.66A68.616,68.616,0,0,1,9.162,53.677a28.546,28.546,0,0,0-4-34.384c-.478-.5-1.136-.935-1.385-1.53-.817-2.015-2.632-4.709-1.939-6,.99-1.828,3.94-3.781,5.921-3.65a46.4,46.4,0,0,1,14,2.964c4.5,1.787,8.248,1.593,11.967-1.2,2.029-1.524,3.954-3.179,5.88-4.848a8.636,8.636,0,0,1,9.626-1.641c1.9.8,3.892,1.385,5.81,2.181,7.694,3.1,14.786,3.068,21.538-2.729,4.681-4.024,9.965-3.6,14.9.139,1.011.769,2.078,1.434,3.068,2.258,4.986,4.3,10.035,5.6,16.427,2.292,3.5-1.808,7.992-2.147,12.057-2.237a8.571,8.571,0,0,1,6.018,3.165c1.676,2.2-.2,4.543-1.766,6.468a8.677,8.677,0,0,1-1.385,1.544c-9.792,7.445-10.042,24.01-3.553,34.176A70.811,70.811,0,0,1,133.132,83.1c2.826,32.05-20.27,63.512-51.843,70.257C42.6,161.608,6.1,135.971.63,96.635.215,93.671.2,90.652,0,87.66Zm82.944,40.312L89.973,139.2c2.251-3.594,4.308-6.738,6.191-9.986a2.867,2.867,0,0,0-.035-2.417c-1.863-3.234-3.892-6.378-6.136-9.979-2.472,3.906-4.661,7.375-7.05,11.157Zm33.629-3.061c2.244-3.532,4.356-6.787,6.364-10.1a2.182,2.182,0,0,0,.1-1.884c-2.022-3.393-4.155-6.724-6.454-10.388-2.188,3.5-4.155,6.482-5.9,9.592a3.67,3.67,0,0,0-.139,3.033C112.335,118.422,114.392,121.448,116.573,124.911Zm-17.542-.173c2.188-3.5,4.224-6.662,6.136-9.9a2.479,2.479,0,0,0,0-2.078c-1.981-3.338-4.058-6.558-6.136-9.924C91.061,113.207,91.054,114.267,99.032,124.738Zm-9-13.989c2.2-3.518,4.2-6.593,6.039-9.751a2.915,2.915,0,0,0,.222-2.417c-1.911-3.324-4-6.537-6.281-10.2L82.986,99.606Zm9-14.363c2.2-3.511,4.231-6.676,6.136-9.917a2.479,2.479,0,0,0,.035-2.078c-1.96-3.3-4.058-6.524-6.177-9.882C91.04,84.807,91.04,85.811,99.032,96.386Zm-16.053-25.2,7.05,11.143c2.2-3.5,4.155-6.468,5.914-9.564a3.622,3.622,0,0,0,.069-3.006c-1.773-3.186-3.8-6.233-6-9.744Zm15.928-25.36c-2.271,3.594-4.266,6.662-6.15,9.8a2.569,2.569,0,0,0-.3,2.126c1.988,3.407,4.155,6.724,6.454,10.388,2.278-3.629,4.3-6.683,6.115-9.855a3.22,3.22,0,0,0,0-2.708c-1.891-3.137-3.913-6.191-6.15-9.751Zm-35.52,0c-2.161,3.463-4.155,6.413-5.914,9.5a3.363,3.363,0,0,0-.312,2.77c1.884,3.324,4,6.51,6.233,10.083,2.251-3.573,4.287-6.634,6.108-9.82a3.193,3.193,0,0,0,0-2.708c-1.863-3.206-3.9-6.267-6.15-9.834Zm26.642-14.2L82.951,42.853l7.078,11.094c2.168-3.463,4.155-6.42,5.887-9.522a3.608,3.608,0,0,0,.09-3C94.232,38.234,92.2,35.173,90.029,31.62Zm8.809-14.169c-2.251,3.587-4.294,6.745-6.233,9.972a2.465,2.465,0,0,0-.09,2.078c1.939,3.324,4.017,6.565,6.122,9.945,8.047-9.7,8.047-9.751,1.835-19.5C100.064,19.307,99.62,18.642,98.838,17.451Zm8.9,64.883,7.043-11.143L107.958,60.36c-7.943,9.148-7.992,9.7-1.87,19.391Zm0,28.394c2.5-3.975,4.744-7.542,7.029-11.164L107.91,88.7c-7.992,9.7-8,9.7-1.794,19.474ZM63.346,96.552c2.271-3.587,4.363-6.835,6.364-10.146a2.133,2.133,0,0,0,.1-1.821c-2.036-3.414-4.155-6.766-6.447-10.388-2.2,3.463-4.211,6.524-6.032,9.7a3.227,3.227,0,0,0-.118,2.729c1.849,3.269,3.92,6.4,6.143,9.945ZM27.86,45.824c-2.2,3.511-4.245,6.683-6.17,9.924a2.576,2.576,0,0,0-.222,2.168c1.988,3.366,4.155,6.641,6.406,10.236,2.216-3.532,4.218-6.6,6.06-9.758a2.922,2.922,0,0,0,.2-2.458C32.223,52.59,30.1,49.363,27.86,45.824ZM81.067,74.3c-2.154,3.463-4.155,6.51-5.983,9.7a3.213,3.213,0,0,0-.069,2.715c1.87,3.269,3.954,6.413,6,9.7,7.8-10.284,7.8-10.284,1.1-20.63-.249-.409-.533-.769-1.053-1.475Zm35.624,0c-7.549,10.977-7.555,10.977-.547,21.468.1.152.319.229.693.485,2.022-3.206,4.093-6.357,6-9.605a2.9,2.9,0,0,0,.048-2.431c-1.918-3.248-3.989-6.4-6.191-9.889ZM81.137,102.556c-2.2,3.463-4.259,6.641-6.164,9.9a2.86,2.86,0,0,0-.09,2.445c1.939,3.3,4.058,6.51,6.281,9.993,2.168-3.463,4.155-6.524,6.011-9.7a3.248,3.248,0,0,0,.076-2.729c-1.856-3.248-3.934-6.392-6.115-9.882ZM63.5,124.717c2.14-3.386,4.155-6.454,6.011-9.619a2.853,2.853,0,0,0,.125-2.417c-1.946-3.345-4.065-6.593-6.233-10.007-7.659,11.164-7.659,11.164-.478,21.524a5.216,5.216,0,0,0,.575.526Zm-9-93.048c-2.285,3.643-4.335,6.8-6.233,10.035a2.472,2.472,0,0,0-.062,2.119c1.953,3.3,4.037,6.531,6.15,9.889,7.86-9.924,7.86-9.924,1.579-19.779C55.575,33.324,55.2,32.756,54.5,31.669ZM27.867,102.542c-2.2,3.539-4.155,6.5-5.893,9.6a3.636,3.636,0,0,0-.159,3.006c1.821,3.248,3.906,6.344,6.073,9.772,2.154-3.428,4.155-6.468,5.97-9.654a3.615,3.615,0,0,0,0-3.006C32.05,109.073,30.028,106.019,27.867,102.542ZM45.645,39.8c2.237-3.573,4.294-6.731,6.177-9.986a2.9,2.9,0,0,0,0-2.445c-1.891-3.234-3.954-6.371-6.184-9.91-2.244,3.573-4.294,6.745-6.233,9.993a2.528,2.528,0,0,0-.139,2.078C41.247,32.908,43.366,36.177,45.645,39.8Zm62.085-8.172c-2.223,3.567-4.211,6.641-6.046,9.8a2.9,2.9,0,0,0-.208,2.424c1.9,3.317,4,6.531,6.233,10.139,2.278-3.594,4.308-6.634,6.136-9.8a3.172,3.172,0,0,0,0-2.687c-1.78-3.172-3.809-6.226-6.115-9.875ZM81.137,39.8c2.161-3.463,4.2-6.614,6.087-9.855a2.922,2.922,0,0,0,.125-2.458c-1.911-3.3-4.01-6.482-6.233-10.014-2.188,3.463-4.2,6.551-6.018,9.7a3.269,3.269,0,0,0-.1,2.77c1.877,3.255,3.954,6.392,6.143,9.862Zm-8.9,48.609c-2.271,3.636-4.294,6.7-6.1,9.889a3.227,3.227,0,0,0,.1,2.708c1.814,3.186,3.823,6.233,6.011,9.758,2.258-3.587,4.363-6.842,6.337-10.173a2.528,2.528,0,0,0,0-2.133C76.615,95.215,74.544,92.057,72.238,88.408ZM63.36,17.437c-2.161,3.463-4.155,6.4-5.886,9.488a3.657,3.657,0,0,0-.208,3.019c1.807,3.248,3.892,6.35,6.1,9.855,2.292-3.636,4.4-6.891,6.371-10.229a2.479,2.479,0,0,0-.125-2.078C67.688,24.238,65.638,21.066,63.36,17.437ZM27.867,74.225c-2.175,3.463-4.231,6.634-6.122,9.889a2.874,2.874,0,0,0-.1,2.452c1.925,3.3,4.031,6.489,6.233,10,2.181-3.463,4.2-6.544,6.011-9.7a3.283,3.283,0,0,0,.1-2.77c-1.849-3.269-3.934-6.413-6.115-9.882Zm44.37,42.6c-2.265,3.615-4.294,6.683-6.1,9.869a3.241,3.241,0,0,0,.09,2.715c1.821,3.186,3.83,6.233,6.011,9.751,2.258-3.58,4.37-6.828,6.344-10.152a2.493,2.493,0,0,0,0-2.14c-1.967-3.248-4.037-6.413-6.344-10.049ZM36.78,54.017c2.216-3.56,4.155-6.655,6.067-9.813a2.687,2.687,0,0,0,.36-2.147c-1.994-3.393-4.155-6.69-6.461-10.388-2.271,3.587-4.3,6.634-6.129,9.813a3.206,3.206,0,0,0,0,2.7C32.466,47.362,34.5,50.409,36.78,54.017Zm8.851,48.6c-2.251,3.594-4.328,6.87-6.35,10.187a1.842,1.842,0,0,0-.235,1.524c2.078,3.463,4.238,6.925,6.572,10.665,2.271-3.594,4.266-6.551,6-9.654a3.629,3.629,0,0,0,.042-3.033c-1.8-3.2-3.83-6.233-6.032-9.709ZM26.081,71.178,19.107,60.25c-7.77,10.388-7.77,10.388-1.08,20.589.242.381.54.693,1.053,1.385ZM36.773,82.369c2.223-3.553,4.155-6.537,5.935-9.619a3.276,3.276,0,0,0,.256-2.729c-1.856-3.276-3.947-6.42-6.191-9.986-2.292,3.622-4.418,6.863-6.4,10.2a2.507,2.507,0,0,0,.145,2.126C32.452,75.6,34.509,78.768,36.773,82.369ZM81.1,45.9c-2.161,3.463-4.155,6.517-5.99,9.7a3.22,3.22,0,0,0-.062,2.708c1.877,3.269,3.961,6.42,6.011,9.7,7.777-10.319,7.777-10.319,1.087-20.644-.277-.395-.561-.748-1.073-1.454Zm-8.83,36.455c2.271-3.587,4.287-6.648,6.143-9.806a2.86,2.86,0,0,0,.18-2.424c-1.946-3.317-4.065-6.524-6.337-10.09-2.223,3.546-4.245,6.614-6.06,9.792a3.248,3.248,0,0,0,0,2.722c1.814,3.186,3.83,6.26,6.046,9.806ZM10.152,96.58c2.3-3.684,4.363-6.925,6.364-10.256a1.856,1.856,0,0,0,.194-1.517c-2.078-3.463-4.224-6.877-6.551-10.61-2.285,3.622-4.252,6.586-6.025,9.7a3.241,3.241,0,0,0-.152,2.673C5.831,89.827,7.895,92.965,10.152,96.58ZM27.867,17.424c-2.175,3.463-4.252,6.634-6.1,9.917a3.3,3.3,0,0,0,.132,2.77c1.821,3.193,3.85,6.233,5.963,9.654,2.181-3.463,4.266-6.621,6.177-9.882a2.909,2.909,0,0,0,.042-2.479C32.175,24.113,30.09,20.942,27.867,17.424ZM54.5,82.341c2.285-3.629,4.28-6.711,6.164-9.862a2.528,2.528,0,0,0,.256-2.078c-1.981-3.4-4.107-6.711-6.385-10.388-2.251,3.56-4.231,6.517-5.977,9.605a3.58,3.58,0,0,0-.1,3C50.236,75.776,52.272,78.809,54.5,82.341ZM45.645,96.566c2.237-3.546,4.231-6.51,5.977-9.612a3.636,3.636,0,0,0,.042-3.026c-1.787-3.179-3.83-6.233-6.025-9.7-2.258,3.608-4.356,6.87-6.33,10.215a2.472,2.472,0,0,0,.083,2.078C41.316,89.786,43.366,92.951,45.645,96.566Zm8.885,42.591c2.265-3.594,4.252-6.669,6.136-9.806a2.611,2.611,0,0,0,.312-2.119c-2-3.407-4.155-6.724-6.461-10.388-2.271,3.594-4.294,6.648-6.115,9.82a3.2,3.2,0,0,0,0,2.7c1.835,3.165,3.864,6.212,6.129,9.792ZM36.773,110.8c2.209-3.546,4.2-6.634,6.046-9.806a2.943,2.943,0,0,0,.235-2.438c-1.925-3.3-4.037-6.5-6.3-10.083-2.265,3.567-4.3,6.614-6.129,9.779a3.193,3.193,0,0,0,0,2.708C32.459,104.107,34.495,107.168,36.773,110.8Zm17.75,0c2.327-3.705,4.418-6.96,6.4-10.277a2.112,2.112,0,0,0,0-1.828c-1.981-3.3-4.065-6.558-6.378-10.249-2.334,3.719-4.418,6.974-6.4,10.284a2.133,2.133,0,0,0,0,1.835c1.981,3.269,4.065,6.517,6.378,10.194ZM45.638,68.172c2.2-3.463,4.155-6.482,5.97-9.543a3.053,3.053,0,0,0,.45-2.452c-1.96-3.407-4.155-6.69-6.441-10.346-2.258,3.6-4.266,6.676-6.115,9.848a2.853,2.853,0,0,0-.132,2.4C41.261,61.344,43.332,64.509,45.638,68.172Zm26.607-36.5c-2.23,3.546-4.3,6.7-6.2,9.959a2.9,2.9,0,0,0,.048,2.445c1.884,3.241,3.94,6.392,6.15,9.91,2.251-3.56,4.321-6.711,6.233-9.972a2.867,2.867,0,0,0,0-2.431c-1.925-3.248-4-6.392-6.233-9.91ZM19.017,110.763l7.05-11.226-7.085-11.08c-2.216,3.532-4.2,6.5-5.928,9.605a3.622,3.622,0,0,0,0,3C14.813,104.225,16.835,107.272,19.017,110.763Zm17.791,28.352c2.154-3.463,4.155-6.551,6-9.7a2.936,2.936,0,0,0,.249-2.431c-1.918-3.317-4.024-6.524-6.143-9.889-7.826,10.049-7.826,10.049-1.385,20.132C35.831,137.709,36.164,138.166,36.808,139.115Zm26.545-8.123c-2.223,3.553-4.28,6.7-6.164,9.959a2.929,2.929,0,0,0,0,2.445c1.337,2.417,2.853,4.737,4.37,7.05,1.2,1.835,2.452,1.939,3.67-.035,1.461-2.355,3-4.654,4.377-7.05a2.548,2.548,0,0,0,.1-2.126C67.75,137.882,65.631,134.613,63.353,130.991ZM82.937,14.432l7.029,11.129c2.237-3.56,4.155-6.551,5.99-9.626a2.976,2.976,0,0,0,.326-2.424c-1.842-3.269-3.463-6.835-7.576-8.269Zm-1.8,116.587c-2.2,3.463-4.287,6.648-6.233,9.91a2.93,2.93,0,0,0,0,2.445,47.571,47.571,0,0,0,3.67,5.824,2.86,2.86,0,0,0,2.147.963c2.216-.139,7.133-5.838,7.064-8.026a2.729,2.729,0,0,0-.5-1.247C85.327,137.688,83.325,134.5,81.137,131.019Zm25.8,6.925,8.019-9.64L107.7,116.822c-2.265,3.622-4.321,6.787-6.233,10.049a2.922,2.922,0,0,0,.1,2.438c1.627,2.687,3.3,5.277,5.381,8.608Zm9.515-91.6c-7.5,10.028-7.5,10.028-.976,20.083.312.478.644.949,1.163,1.7,1.808-2.881,3.65-5.54,5.132-8.359a4.612,4.612,0,0,0,.069-3.615C120.251,52.833,118.332,49.688,116.456,46.344ZM48.339,149.108c1.247-2.008,2.486-3.809,3.463-5.727a2.95,2.95,0,0,0,0-2.445c-1.884-3.241-3.94-6.378-6.184-9.945-2.278,3.643-4.4,6.891-6.344,10.249a3.444,3.444,0,0,0,.284,2.41C41.143,147.55,44.924,147.834,48.339,149.108ZM51.614,7.832c-.817,1.3-1.676,2.514-2.368,3.809-.568,1.06-1.641,2.6-1.281,3.276,1.911,3.56,4.211,6.925,6.565,10.644l6.752-10.79C60.125,9.39,55.756,9,51.614,7.825Zm-32.805,46.5c2.77-4.37,4.986-7.929,7.251-11.544-2.313-3.663-4.591-7.223-6.849-10.852-4.8,4.155-2.985,9.869-3.871,14.723C14.966,48.719,17.313,51.281,18.809,54.335Zm106.539,56.226c5.166-7.923,5.132-15.873-.055-21.808-2.078,3.241-4.155,6.4-6.067,9.633a2.548,2.548,0,0,0-.09,2.161C121.089,103.879,123.194,107.141,125.348,110.562ZM75.153,7.943C72.632,9,70.1,9.695,68.1,11.08c-1.177.838-2.493,3.317-2.078,4.273,1.621,3.463,3.947,6.586,6.233,10.159,2.223-3.511,4.266-6.572,6.094-9.751a3.345,3.345,0,0,0,0-2.729,60.044,60.044,0,0,0-3.193-5.09ZM124.78,61.212c-2.161,3.407-3.864,5.983-5.429,8.643a2.6,2.6,0,0,0-.235,2.168c1.981,3.386,4.121,6.683,6.2,9.979,3.747-3.366,4.231-7.008,2.652-11.177C126.851,67.93,126,64.952,124.78,61.212ZM112.46,10.886c-3.567.693-6.808,1.129-9.952,1.96-.547.139-1.253,2.126-.921,2.735,1.787,3.29,3.878,6.42,6.143,10.056,2.514-4,4.785-7.618,7.036-11.2ZM40.229,9.072l-9.758,6.517C32.445,18.725,34.495,22,36.7,25.568c1.447-2.3,2.666-4.231,3.871-6.164C43.9,14.134,43.9,14.127,40.229,9.072ZM12.3,121.462c1.648-2.59,2.895-4.377,3.927-6.281a2.9,2.9,0,0,0,.229-2.4c-1.925-3.331-4.037-6.558-6.087-9.82l-1.018-.076c-.776,2.334-2.569,4.9-2.078,6.925C8.123,113.63,10.326,117.127,12.3,121.462Zm6.738-4.619c-1.44,2.258-2.729,4.017-3.712,5.935a3.006,3.006,0,0,0,.1,2.639c2.078,2.77,4.411,5.416,6.925,8.428,1.447-2.32,2.576-4.114,3.684-5.9C23.733,124.288,21.552,120.825,19.038,116.843ZM13.276,11.018c-.208,2.029-.873,3.608-.367,4.571,1.731,3.317,3.871,6.42,6.108,10l6.17-9.9ZM98.907,131.026c-1.925,3.013-3.539,5.852-5.464,8.463-1.69,2.292-1.524,4.065,1.011,6.025l9.73-6Zm-88.8-62.812c1.648-2.618,2.929-4.647,4.2-6.683,2.95-4.744,2.95-4.744-.914-10.194C12.583,57.272,5.049,60.845,10.111,68.214ZM116.947,16.821c-2.569,4.114-4.585,7.168-6.4,10.346a3.338,3.338,0,0,0-.083,2.77c1.073,2.078,2.452,3.982,3.414,5.5,1.385-4.675,2.832-9.4,4.037-14.19C118.173,20.214,117.46,18.975,116.947,16.821ZM27.909,130.887l-3.151,5.18,9.418,6.738.693-.769ZM126.767,10.471l-.429-1.627c-1.53.1-3.65-.395-4.5.422-3.463,3.366-3.594,5.263-1.06,8.158Zm-49.433-5.1,3.781,6.032L85.8,3.746l-.616-.976ZM5.076,104.017c3.705-4.481,3.31-6.572-1.974-11.434ZM72.21,145.2,67.986,152l7.971-.893ZM9.5,18.178l6.233,11.967C17.23,28.352,14.412,22.2,9.5,18.178Zm42.023,131.83,6.863,1.35c-1.5-2.382-2.576-4.072-3.892-6.15ZM42.4,6.232l3.255,5.118,3.165-5.118ZM3.92,76.87l.838.173c.568-2.77,5.173-4.64,1.337-8.864Z" fill="#dfc548"/>
      </g>
    </g>
  </g>
</svg>
