<svg xmlns="http://www.w3.org/2000/svg" width="36.708" height="36.708" viewBox="0 0 36.708 36.708">
  <g id="Covid_19" data-name="Covid_19" transform="translate(-18 -86)">
    <path id="Path_217" data-name="Path 217" d="M35.91,20.732a1.075,1.075,0,0,0-1.317.76l-.025.093-2.488-.667a14,14,0,0,0,0-5.129l2.488-.667.025.093a1.075,1.075,0,1,0,2.078-.557L36.064,12.4a1.075,1.075,0,0,0-2.078.557l.025.093-2.489.667a13.969,13.969,0,0,0-2.569-4.437L30.78,7.448l.068.068A1.075,1.075,0,1,0,32.369,6L30.712,4.339a1.075,1.075,0,1,0-1.521,1.521l.068.068L27.432,7.754A13.969,13.969,0,0,0,23,5.185L23.662,2.7l.093.025A1.075,1.075,0,0,0,24.312.643L22.048.037a1.075,1.075,0,0,0-.557,2.078l.093.025-.667,2.488a14,14,0,0,0-5.129,0l-.667-2.488.093-.025A1.075,1.075,0,0,0,14.658.037L12.4.643a1.075,1.075,0,1,0,.557,2.078l.093-.025.667,2.489A13.97,13.97,0,0,0,9.274,7.754L7.448,5.927l.068-.068A1.075,1.075,0,1,0,5.995,4.338L4.338,6A1.075,1.075,0,0,0,5.859,7.516l.068-.068L7.754,9.275a13.97,13.97,0,0,0-2.569,4.437L2.7,13.045l.025-.093A1.075,1.075,0,1,0,.643,12.4L.036,14.659a1.075,1.075,0,1,0,2.078.557l.025-.093,2.488.667a14,14,0,0,0,0,5.129l-2.488.667-.025-.093a1.075,1.075,0,0,0-2.078.557l.606,2.263a1.075,1.075,0,1,0,2.078-.557L2.7,23.663,5.184,23a13.97,13.97,0,0,0,2.569,4.437L5.927,29.26l-.068-.068a1.075,1.075,0,0,0-1.521,1.521l1.657,1.657a1.075,1.075,0,0,0,1.521-1.521l-.068-.068,1.827-1.827a13.968,13.968,0,0,0,4.437,2.569l-.667,2.489-.093-.025a1.075,1.075,0,0,0-.557,2.078l2.263.606a1.075,1.075,0,1,0,.557-2.078l-.093-.025.667-2.488a14,14,0,0,0,5.129,0l.667,2.488-.093.025a1.075,1.075,0,1,0,.557,2.078l2.263-.606a1.075,1.075,0,0,0-.557-2.078l-.093.025-.667-2.489a13.97,13.97,0,0,0,4.437-2.569l1.827,1.827-.068.068a1.075,1.075,0,0,0,1.521,1.521l1.657-1.657a1.075,1.075,0,1,0-1.521-1.521l-.068.068-1.827-1.827A13.969,13.969,0,0,0,31.522,23l2.489.667-.025.093a1.075,1.075,0,1,0,2.078.557l.606-2.263a1.075,1.075,0,0,0-.76-1.317ZM18.353,30.166A11.812,11.812,0,1,1,30.166,18.354,11.826,11.826,0,0,1,18.353,30.166Z" transform="translate(18.001 86)" fill="#191919"/>
    <circle id="Ellipse_2" data-name="Ellipse 2" cx="1.075" cy="1.075" r="1.075" transform="translate(35.279 95.215)" fill="#191919"/>
    <circle id="Ellipse_3" data-name="Ellipse 3" cx="1.075" cy="1.075" r="1.075" transform="translate(35.279 111.342)" fill="#191919"/>
    <circle id="Ellipse_4" data-name="Ellipse 4" cx="1.075" cy="1.075" r="1.075" transform="translate(32.975 105.583)" fill="#191919"/>
    <circle id="Ellipse_5" data-name="Ellipse 5" cx="1.075" cy="1.075" r="1.075" transform="translate(37.583 105.583)" fill="#191919"/>
    <circle id="Ellipse_6" data-name="Ellipse 6" cx="1.075" cy="1.075" r="1.075" transform="translate(37.583 100.975)" fill="#191919"/>
    <circle id="Ellipse_7" data-name="Ellipse 7" cx="1.075" cy="1.075" r="1.075" transform="translate(32.975 100.975)" fill="#191919"/>
    <circle id="Ellipse_8" data-name="Ellipse 8" cx="1.075" cy="1.075" r="1.075" transform="translate(43.342 103.279)" fill="#191919"/>
    <circle id="Ellipse_9" data-name="Ellipse 9" cx="1.075" cy="1.075" r="1.075" transform="translate(27.215 103.279)" fill="#191919"/>
    <circle id="Ellipse_10" data-name="Ellipse 10" cx="1.075" cy="1.075" r="1.075" transform="translate(40.98 97.577)" fill="#191919"/>
    <circle id="Ellipse_11" data-name="Ellipse 11" cx="1.075" cy="1.075" r="1.075" transform="translate(29.577 108.981)" fill="#191919"/>
    <circle id="Ellipse_12" data-name="Ellipse 12" cx="1.075" cy="1.075" r="1.075" transform="translate(40.98 108.981)" fill="#191919"/>
    <circle id="Ellipse_13" data-name="Ellipse 13" cx="1.075" cy="1.075" r="1.075" transform="translate(29.577 97.577)" fill="#191919"/>
  </g>
</svg>
