<svg xmlns="http://www.w3.org/2000/svg" width="167.247" height="251.226" viewBox="0 0 167.247 251.226">
  <line id="Line_15" data-name="Line 15" x2="85" y2="173" transform="translate(4.015 4.015)" fill="none" stroke="#e97f75" stroke-linecap="round" stroke-width="6"/>
  <path id="solid_lemon" data-name="solid lemon" d="M90.086,4.23c-4.254-4.254-10.019-5.322-13.833-3.1C65.4,7.45,42.865-8.648,17.108,17.109S7.45,65.4,1.129,76.254c-2.221,3.814-1.153,9.579,3.1,13.833s10.02,5.322,13.833,3.1c10.85-6.32,33.388,9.778,59.144-15.979s9.659-48.294,15.98-59.145c2.221-3.814,1.153-9.579-3.1-13.833ZM44.926,17.6C34.206,20.276,20.277,34.2,17.6,44.926A2.947,2.947,0,1,1,11.877,43.5c3.21-12.838,18.76-28.4,31.618-31.618a2.947,2.947,0,0,1,1.43,5.719Z" transform="translate(72.415 156.394)" fill="#e97f75" stroke="#191919" stroke-width="1"/>
</svg>
