<svg xmlns="http://www.w3.org/2000/svg" viewBox="0 0 131.75 44.34"><g style="isolation:isolate"><g style="isolation:isolate"><path d="M4.16,32a4.12,4.12,0,0,1-1.65-.33,4,4,0,0,1-1.32-.88,4.08,4.08,0,0,1-.87-1.34A4.34,4.34,0,0,1,0,27.75a4.4,4.4,0,0,1,.32-1.67,4.14,4.14,0,0,1,.87-1.33,4,4,0,0,1,1.32-.88,4.12,4.12,0,0,1,1.65-.33A4,4,0,0,1,8,26.08a4.4,4.4,0,0,1,.32,1.67A4.34,4.34,0,0,1,8,29.41a4.08,4.08,0,0,1-.87,1.34,4.21,4.21,0,0,1-3,1.21Zm0-1.71a2.1,2.1,0,0,0,1-.2,2.12,2.12,0,0,0,.71-.55,2.33,2.33,0,0,0,.45-.8,3.05,3.05,0,0,0,0-1.95A2.29,2.29,0,0,0,5.82,26a2.1,2.1,0,0,0-.71-.54,2.24,2.24,0,0,0-1-.2,2.24,2.24,0,0,0-1,.2,2,2,0,0,0-.72.54,2.29,2.29,0,0,0-.45.79A3.05,3.05,0,0,0,2,28.7a2.33,2.33,0,0,0,.45.8,2,2,0,0,0,.72.55A2.1,2.1,0,0,0,4.16,30.25Z" fill="#191919"/><path d="M9.57,23.76h5.37v1.59H11.38v1.81h2.7v1.55h-2.7v3H9.57Z" fill="#191919"/><path d="M16,23.76H21.4v1.59H17.84v1.81h2.71v1.55H17.84v3H16Z" fill="#191919"/><path d="M22.49,23.76H24.3v8H22.49Z" fill="#191919"/><path d="M33.07,30.28a3.71,3.71,0,0,1-.61.65,4.15,4.15,0,0,1-.8.54,4.58,4.58,0,0,1-.94.36,4.66,4.66,0,0,1-1.06.13A4.47,4.47,0,0,1,28,31.65a3.86,3.86,0,0,1-2.15-2.19,4.55,4.55,0,0,1-.3-1.67,4.49,4.49,0,0,1,.3-1.66,4.08,4.08,0,0,1,.85-1.35,3.92,3.92,0,0,1,1.31-.9,4.13,4.13,0,0,1,1.68-.33,4.44,4.44,0,0,1,1.95.41A3.73,3.73,0,0,1,33,25.14l-1.23,1.18a3.26,3.26,0,0,0-.85-.81,2.23,2.23,0,0,0-1.18-.3,2.19,2.19,0,0,0-1,.2,2.08,2.08,0,0,0-.73.54,2.48,2.48,0,0,0-.46.81,2.88,2.88,0,0,0-.16,1,2.84,2.84,0,0,0,.16,1,2.38,2.38,0,0,0,.46.79,2.11,2.11,0,0,0,.72.53,2.21,2.21,0,0,0,.95.19,2.73,2.73,0,0,0,.74-.09A2.27,2.27,0,0,0,31,29.9a2.12,2.12,0,0,0,.44-.35c.12-.13.25-.26.37-.4Z" fill="#191919"/><path d="M34,23.76h1.81v8H34Z" fill="#191919"/><path d="M39.68,23.76h2l2.92,8h-2L42,29.92H39.2l-.61,1.83h-1.9Zm1.9,4.76-1-3-1,3Z" fill="#191919"/><path d="M45.48,23.76h1.81v6.39h3.82v1.6H45.48Z" fill="#191919"/></g><g style="isolation:isolate"><path d="M.55,36.15H2.27L4.35,39.9l2-3.75H8.12l.37,8H6.68l-.23-5.23L4.79,42H3.86L2.11,39l-.2,5.19H.18Z" fill="#191919"/><path d="M9.91,36.15h5.47v1.58H11.72v1.56h2.84v1.53H11.72v1.73h3.92v1.59H9.91Z" fill="#191919"/><path d="M16.87,36.15h3a3.51,3.51,0,0,1,1.22.19,2.57,2.57,0,0,1,.88.54,2.24,2.24,0,0,1,.53.8A2.87,2.87,0,0,1,22.3,40a2.52,2.52,0,0,1-1,.93l1.77,3.2h-2L19.64,41.2h-1v2.94H16.87Zm2.87,3.6a1,1,0,0,0,.79-.3,1.15,1.15,0,0,0,0-1.53,1.07,1.07,0,0,0-.79-.29H18.63v2.12Z" fill="#191919"/><path d="M31.25,42.67a3.71,3.71,0,0,1-.61.65,4.44,4.44,0,0,1-.8.53,4.81,4.81,0,0,1-.94.36,4.18,4.18,0,0,1-1.07.13A4.27,4.27,0,0,1,26.17,44a3.54,3.54,0,0,1-1.3-.87A3.8,3.8,0,0,1,24,41.84a4.47,4.47,0,0,1-.3-1.67,4.57,4.57,0,0,1,.3-1.66,4,4,0,0,1,2.15-2.24,4.21,4.21,0,0,1,1.69-.33,4.44,4.44,0,0,1,1.95.41,3.7,3.7,0,0,1,1.38,1.17L30,38.71a3,3,0,0,0-.86-.81,2.17,2.17,0,0,0-1.17-.3,2.33,2.33,0,0,0-1,.19,2.1,2.1,0,0,0-.73.55,2.31,2.31,0,0,0-.46.81,2.91,2.91,0,0,0,0,2,2.31,2.31,0,0,0,.46.79,2.24,2.24,0,0,0,.72.53,2.35,2.35,0,0,0,.94.19,2.75,2.75,0,0,0,.75-.09,2.44,2.44,0,0,0,.57-.24,2.12,2.12,0,0,0,.43-.35l.38-.4Z" fill="#191919"/><path d="M32.2,36.15H34v3.06h3.46V36.15h1.81v8H37.47V40.86H34v3.28H32.2Z" fill="#191919"/><path d="M43.13,36.15h2l2.93,8h-2l-.61-1.83H42.65L42,44.14H40.15ZM45,40.9l-1-3-1,3Z" fill="#191919"/><path d="M48.93,36.15h1.73l3.46,5.19V36.15h1.79v8H54.27l-3.55-5.29v5.29H48.93Z" fill="#191919"/><path d="M57.47,36.15h3a6.25,6.25,0,0,1,1.71.23,3.84,3.84,0,0,1,1.35.74,3.16,3.16,0,0,1,.89,1.26,4.71,4.71,0,0,1,.31,1.8,4.26,4.26,0,0,1-.32,1.74,3.48,3.48,0,0,1-.89,1.23,3.82,3.82,0,0,1-1.36.75,5.77,5.77,0,0,1-1.7.24h-3Zm2.91,6.38a2.56,2.56,0,0,0,1.85-.62,2.32,2.32,0,0,0,.64-1.74,3.18,3.18,0,0,0-.15-1,2,2,0,0,0-.45-.76,2,2,0,0,0-.78-.5,3.32,3.32,0,0,0-1.11-.17h-1.1v4.79Z" fill="#191919"/><path d="M66.06,36.15h1.81v8H66.06Z" fill="#191919"/><path d="M70,41.75a3,3,0,0,0,.36.35,4.29,4.29,0,0,0,.47.32,3.13,3.13,0,0,0,.56.23,2.39,2.39,0,0,0,.66.09,1.51,1.51,0,0,0,.41-.06,1.27,1.27,0,0,0,.37-.18.87.87,0,0,0,.27-.27.76.76,0,0,0,.1-.37.79.79,0,0,0-.43-.69,6.29,6.29,0,0,0-1.37-.48,3.64,3.64,0,0,1-.84-.31,2.89,2.89,0,0,1-.68-.49,2.34,2.34,0,0,1-.43-.66,2,2,0,0,1-.16-.83,2.51,2.51,0,0,1,.18-.95,2.1,2.1,0,0,1,.55-.78,2.47,2.47,0,0,1,.91-.54,3.8,3.8,0,0,1,1.29-.2,4.17,4.17,0,0,1,1.87.42,3.15,3.15,0,0,1,.54.36L75,37l-1,1.15-.31-.24a3.64,3.64,0,0,0-.39-.23,2.87,2.87,0,0,0-.47-.18,2,2,0,0,0-.55-.07,1.28,1.28,0,0,0-.71.22.91.91,0,0,0-.24.24.52.52,0,0,0-.09.29.73.73,0,0,0,.43.66,4.06,4.06,0,0,0,1.19.42,6,6,0,0,1,.87.3,2.87,2.87,0,0,1,.76.48,2.4,2.4,0,0,1,.54.74,2.6,2.6,0,0,1,.2,1.06,2.14,2.14,0,0,1-.24,1,2.72,2.72,0,0,1-.65.79,3.33,3.33,0,0,1-1,.52,3.93,3.93,0,0,1-1.21.18A4.63,4.63,0,0,1,71,44.23a5.16,5.16,0,0,1-.89-.3,3.36,3.36,0,0,1-.71-.43,3.22,3.22,0,0,1-.54-.49Z" fill="#191919"/><path d="M76.51,36.15H82v1.58H78.32v1.56h2.85v1.53H78.32v1.73h3.92v1.59H76.51Z" fill="#191919"/></g></g><path d="M91.6,0A1.4,1.4,0,0,0,91,.18l-13,7.53a1.34,1.34,0,0,0-.5,1.84h0l4.44,7.68a1.35,1.35,0,0,0,1.85.5h0l6.81-3.93V42.54a1.36,1.36,0,0,0,1.36,1.36H117a1.36,1.36,0,0,0,1.36-1.35h0V13.77l6.88,4a1.35,1.35,0,0,0,1.85-.49h0l4.44-7.69a1.35,1.35,0,0,0-.49-1.85h0l-13-7.53a1.45,1.45,0,0,0-.84-.17h-7.37c-.11.86-2.46,1.54-5.34,1.54S99.27.86,99.16,0H91.6Z" fill="#dfc548"/><path d="M108.28,22.42a1.07,1.07,0,0,0-1.12-.59c-1.07.29-2.64-1.61-5.44,0S99.78,25.77,99,26.55a1.18,1.18,0,0,0,1.07,1.85c1.07-.3,2.64,1.6,5.44,0s1.94-3.92,2.74-4.71A1.05,1.05,0,0,0,108.28,22.42Zm-4.19.1a4.1,4.1,0,0,0-3,1.72.27.27,0,0,1-.35.12.28.28,0,0,1-.12-.36h0a4.55,4.55,0,0,1,3.44-2,.26.26,0,0,1,0,.52Z" fill="#e87d6f" stroke="#191919" stroke-miterlimit="10" stroke-width="0.25"/><path d="M103.24,27.15a1.06,1.06,0,0,0-1.23-.27c-1,.56-3-.87-5.26,1.42s-.86,4.29-1.42,5.26a1.18,1.18,0,0,0,1.51,1.5c1-.56,3,.87,5.25-1.42s.86-4.29,1.42-5.26A1.06,1.06,0,0,0,103.24,27.15Zm-4,1.19a4.14,4.14,0,0,0-2.43,2.43.26.26,0,0,1-.51-.11v0a4.58,4.58,0,0,1,2.81-2.81.26.26,0,0,1,.31.21A.25.25,0,0,1,99.22,28.34Z" fill="#e87d6f" stroke="#191919" stroke-miterlimit="10" stroke-width="0.25"/><path d="M109.19,36.6a1.06,1.06,0,0,0,.85-.93c0-1.11,2.24-2.13,1.4-5.26s-3.29-2.89-3.84-3.86a1.05,1.05,0,0,0-1.21-.37,1,1,0,0,0-.85.92c0,1.12-2.24,2.14-1.4,5.27s3.29,2.89,3.84,3.85A1.07,1.07,0,0,0,109.19,36.6Zm1-4.07a4.07,4.07,0,0,0-.88-3.32.26.26,0,0,1,0-.37.27.27,0,0,1,.37,0v0a4.55,4.55,0,0,1,1,3.83.26.26,0,0,1-.33.17A.27.27,0,0,1,110.16,32.53Z" fill="#e87d6f" stroke="#191919" stroke-miterlimit="10" stroke-width="0.25"/><g style="isolation:isolate"><g style="isolation:isolate"><path d="M93.57,10.93,92.08,8.3h1.09L94.1,10,95,8.3h1l-1.5,2.62v1.89h-1Z" fill="#191919"/><path d="M96.52,8.3h2.91v.89h-2v.88H99v.87H97.48v1h2.09v.9h-3Z" fill="#191919"/><path d="M100.22,8.3h1v3.61h2v.9h-3Z" fill="#191919"/><path d="M103.8,8.3h1v3.61h2v.9h-3Z" fill="#191919"/><path d="M109.23,12.93a2.16,2.16,0,0,1-.88-.18,2.23,2.23,0,0,1-1.17-1.26,2.62,2.62,0,0,1-.17-.94,2.66,2.66,0,0,1,.17-.94,2.44,2.44,0,0,1,.47-.75,2.19,2.19,0,0,1,.7-.5,2.16,2.16,0,0,1,.88-.18,2.13,2.13,0,0,1,.88.18,2.19,2.19,0,0,1,.7.5,2.44,2.44,0,0,1,.47.75,2.66,2.66,0,0,1,.17.94,2.62,2.62,0,0,1-.17.94,2.23,2.23,0,0,1-1.17,1.26A2.13,2.13,0,0,1,109.23,12.93Zm0-1a1.07,1.07,0,0,0,.51-.12,1.24,1.24,0,0,0,.38-.31,1.61,1.61,0,0,0,.24-.45,1.93,1.93,0,0,0,0-1.1,1.61,1.61,0,0,0-.24-.45,1.2,1.2,0,0,0-.38-.3,1.24,1.24,0,0,0-1,0,1,1,0,0,0-.38.3,1.22,1.22,0,0,0-.24.45,1.93,1.93,0,0,0,0,1.1,1.22,1.22,0,0,0,.24.45,1,1,0,0,0,.38.31A1.07,1.07,0,0,0,109.23,12Z" fill="#191919"/><path d="M111.67,8.3h1l.62,3.27.75-3.15H115l.75,3.15.62-3.27h1l-1.09,4.51h-1l-.73-3-.74,3h-1Z" fill="#191919"/></g></g><g style="isolation:isolate"><g style="isolation:isolate"><path d="M94.05,14.23h1v3.41h2v.86h-3Z" fill="#191919"/><path d="M97.62,14.23h2.92v.85h-2v.83h1.51v.82H98.59v.92h2.09v.85H97.62Z" fill="#191919"/><path d="M101.46,14.23h.91l1.11,2,1.09-2h.92l.2,4.27h-1l-.12-2.79-.88,1.66h-.5l-.93-1.64-.11,2.77h-.92Z" fill="#191919"/><path d="M108.5,18.61a2.16,2.16,0,0,1-.88-.18,2.1,2.1,0,0,1-.7-.47,2.31,2.31,0,0,1-.47-.71,2.41,2.41,0,0,1,0-1.78,2.27,2.27,0,0,1,.47-.7,2.13,2.13,0,0,1,.7-.48,2.34,2.34,0,0,1,.88-.17,2.3,2.3,0,0,1,.88.17,2,2,0,0,1,.7.48,2.1,2.1,0,0,1,.47.7,2.41,2.41,0,0,1,0,1.78,2.15,2.15,0,0,1-.47.71,2,2,0,0,1-.7.47A2.13,2.13,0,0,1,108.5,18.61Zm0-.91a1.15,1.15,0,0,0,.89-.4,1.64,1.64,0,0,0,.24-.43,1.73,1.73,0,0,0,0-1,1.44,1.44,0,0,0-.24-.42,1.15,1.15,0,0,0-.89-.4,1.23,1.23,0,0,0-.51.11,1.1,1.1,0,0,0-.38.29,1.24,1.24,0,0,0-.24.42,1.73,1.73,0,0,0,0,1,1.4,1.4,0,0,0,.24.43,1.1,1.1,0,0,0,.38.29A1.23,1.23,0,0,0,108.5,17.7Z" fill="#191919"/><path d="M111.39,14.23h.92L114.15,17V14.23h1V18.5h-.88l-1.89-2.82V18.5h-1Z" fill="#191919"/></g></g></svg>