<svg xmlns="http://www.w3.org/2000/svg" viewBox="0 0 47 39.08"><line y1="28.27" x2="47" y2="28.27" fill="none" stroke="#e87d6f" stroke-miterlimit="10" stroke-width="0.25"/><path d="M22.22,0a29.59,29.59,0,0,0-6.55,1c-2,.58-3.43,1.37-3.91,2.22a1.36,1.36,0,0,0-.2.78,1,1,0,0,0,.12.48C12,5.21,13.11,6,14.73,6.52c.42.15.46.17.32.14a13.54,13.54,0,0,1-1.38-.53c-1.22-.56-2-1.26-2.15-1.9a.85.85,0,0,0,0-.17s0,1,0,2.31a23,23,0,0,1,0,2.35l-.52.07a6.66,6.66,0,0,0-5.61,3.38,7.88,7.88,0,0,0-.8,2.35,7.38,7.38,0,0,0-.13,1.62,7.25,7.25,0,0,0,.07,1.23,13.58,13.58,0,0,0,1.79,5.05c1.42,2.44,3.14,4,4.93,4.52l.29.08v4.22l0,4.22.1.25c.56,1.3,3.15,2.43,6.84,3A36.2,36.2,0,0,0,30,38.53c2.69-.51,4.68-1.35,5.52-2.31a1.72,1.72,0,0,0,.33-.51l.11-.27,0-15.56c0-12.17,0-15.59,0-15.74.2-1.08-1-2.15-3.3-2.92A26.4,26.4,0,0,0,25.92.05C25.21,0,22.93,0,22.22,0ZM15.4,6.75s0,0,0,0l-.15,0s0,0,0,0l.15,0Zm.14,0h0s0,0,0,0,0,0,0,0Zm.22.06h0s0,0,0,0,0,0,0,0Zm-4.29,11c0,3.65,0,6.29,0,6.29L11.12,24a8.78,8.78,0,0,1-3.21-3.75,9.88,9.88,0,0,1-1.08-4.56,4,4,0,0,1,1.51-3.17,5.47,5.47,0,0,1,2.17-.86l.34-.06h.62Z" fill="#dfc548"/><path d="M26.38,20.87a.47.47,0,0,0-.51-.26c-.5.13-1.21-.74-2.5,0s-.89,1.8-1.26,2.16a.5.5,0,0,0,0,.58.49.49,0,0,0,.51.27c.5-.14,1.21.74,2.5,0s.89-1.8,1.26-2.16A.49.49,0,0,0,26.38,20.87Zm-1.92.05a1.89,1.89,0,0,0-1.37.79.12.12,0,0,1-.16.06.13.13,0,0,1-.05-.17h0a2.13,2.13,0,0,1,1.58-.92.13.13,0,0,1,.12.13A.13.13,0,0,1,24.46,20.92Z" fill="#e87d6f" stroke="#191919" stroke-miterlimit="10" stroke-width="0.25"/><path d="M24.07,23.05a.51.51,0,0,0-.57-.13c-.44.26-1.36-.4-2.41.66s-.39,2-.65,2.41a.48.48,0,0,0,.12.56.49.49,0,0,0,.57.13c.44-.26,1.36.4,2.41-.65s.39-2,.65-2.42A.48.48,0,0,0,24.07,23.05Zm-1.85.55a1.85,1.85,0,0,0-1.11,1.11.11.11,0,0,1-.14.09.12.12,0,0,1-.1-.14h0a2.09,2.09,0,0,1,1.29-1.29.13.13,0,0,1,.14.09A.13.13,0,0,1,22.22,23.6Z" fill="#e87d6f" stroke="#191919" stroke-miterlimit="10" stroke-width="0.25"/><path d="M26.8,27.39a.49.49,0,0,0,.39-.43c0-.51,1-1,.64-2.42s-1.51-1.32-1.76-1.77a.55.55,0,0,0-.95.26c0,.51-1,1-.64,2.41s1.51,1.33,1.77,1.77A.47.47,0,0,0,26.8,27.39Zm.45-1.87A1.92,1.92,0,0,0,26.84,24a.12.12,0,0,1,0-.17.12.12,0,0,1,.17,0h0a2.09,2.09,0,0,1,.48,1.76.12.12,0,0,1-.15.08A.11.11,0,0,1,27.25,25.52Z" fill="#e87d6f" stroke="#191919" stroke-miterlimit="10" stroke-width="0.25"/><g style="isolation:isolate"><g style="isolation:isolate"><path d="M19.63,15.6l-.69-1.2h.51l.42.78.42-.78h.48l-.69,1.2v.87h-.45Z" fill="#191919"/><path d="M21,14.4h1.34v.41h-.9v.4h.7v.4h-.7v.44h1v.42H21Z" fill="#191919"/><path d="M22.68,14.4h.45v1.65h.93v.42H22.68Z" fill="#191919"/><path d="M24.32,14.4h.45v1.65h.93v.42H24.32Z" fill="#191919"/><path d="M26.82,16.52a1.11,1.11,0,0,1-.41-.08,1.24,1.24,0,0,1-.32-.23,1.13,1.13,0,0,1-.21-.35,1.2,1.2,0,0,1,0-.86,1.13,1.13,0,0,1,.21-.35,1.24,1.24,0,0,1,.32-.23,1.11,1.11,0,0,1,.41-.08,1.06,1.06,0,0,1,.4.08,1.24,1.24,0,0,1,.32.23,1.15,1.15,0,0,1,.22.35,1.2,1.2,0,0,1,0,.86,1.15,1.15,0,0,1-.22.35,1.24,1.24,0,0,1-.32.23A1.06,1.06,0,0,1,26.82,16.52Zm0-.44a.59.59,0,0,0,.23,0,.5.5,0,0,0,.17-.15.56.56,0,0,0,.11-.2.75.75,0,0,0,0-.26.73.73,0,0,0,0-.25.49.49,0,0,0-.11-.2.39.39,0,0,0-.17-.14.46.46,0,0,0-.23-.05.47.47,0,0,0-.24.05.46.46,0,0,0-.17.14.49.49,0,0,0-.11.2.73.73,0,0,0,0,.25.75.75,0,0,0,0,.26.56.56,0,0,0,.11.2.61.61,0,0,0,.17.15A.6.6,0,0,0,26.82,16.08Z" fill="#191919"/><path d="M27.94,14.4h.47l.29,1.5L29,14.45h.41l.34,1.45.29-1.5h.45L30,16.47h-.47l-.34-1.36-.34,1.36h-.46Z" fill="#191919"/></g></g><g style="isolation:isolate"><g style="isolation:isolate"><path d="M19.85,17.12h.44v1.56h.94v.4H19.85Z" fill="#191919"/><path d="M21.49,17.12h1.34v.39h-.9v.38h.7v.37h-.7v.43h1v.39h-1.4Z" fill="#191919"/><path d="M23.25,17.12h.42l.51.92.5-.92h.42l.09,2h-.44l-.06-1.28-.4.76h-.23l-.43-.75-.05,1.27h-.42Z" fill="#191919"/><path d="M26.48,19.13a1.06,1.06,0,0,1-.4-.08,1.21,1.21,0,0,1-.32-.22,1,1,0,0,1-.22-.33,1.06,1.06,0,0,1-.08-.4,1,1,0,0,1,.3-.74,1,1,0,0,1,.32-.21.9.9,0,0,1,.4-.08.94.94,0,0,1,.41.08,1,1,0,0,1,.32.21,1,1,0,0,1,.21.33,1.07,1.07,0,0,1,.08.41,1.06,1.06,0,0,1-.08.4.93.93,0,0,1-.21.33,1.21,1.21,0,0,1-.32.22A1.11,1.11,0,0,1,26.48,19.13Zm0-.42a.52.52,0,0,0,.23-.05.59.59,0,0,0,.18-.13.78.78,0,0,0,.11-.2.93.93,0,0,0,0-.24,1,1,0,0,0,0-.24.59.59,0,0,0-.11-.19.46.46,0,0,0-.18-.13.41.41,0,0,0-.23-.05.46.46,0,0,0-.23.05.46.46,0,0,0-.18.13.86.86,0,0,0-.11.19,1,1,0,0,0,0,.24.93.93,0,0,0,0,.24,1.28,1.28,0,0,0,.11.2.56.56,0,0,0,.41.18Z" fill="#191919"/><path d="M27.81,17.12h.42l.85,1.27V17.12h.43v2h-.4l-.87-1.3v1.3h-.43Z" fill="#191919"/></g></g></svg>