<svg xmlns="http://www.w3.org/2000/svg" viewBox="0 0 42.42 24.37"><path d="M38.36,23.5c-2.8-2.09-4-4.57-7-6.39,4.65-.9,5.51-.66,8.43,1S44.05,26.47,38.36,23.5Z" fill="#e87d6f" stroke="#191919" stroke-miterlimit="10" stroke-width="0.25" fill-rule="evenodd"/><path d="M32.9,14C24.18,10.13,14,12.61,5.44,17c-1.66.85-3.26,1.77-4.76,2.73.22-.06.29-3,.42-3.61C.84,8.88,3.48,3.66,10.87,1.12,14.64.74,19-.34,22.74.55,25.37,1.7,26,2.38,28.89,5.14c.51,1,3.89,8.89,4,8.9Z" fill="#e87d6f" stroke="#191919" stroke-miterlimit="10" stroke-width="0.25" fill-rule="evenodd"/><path d="M40.31,18.59c-4.45-3-8.38-7-13-7.35-6.83-.47-14.91,1.89-22,5.77,3.39,4.52,4.63,8.47,11.55,6.1S33.54,13.7,40.31,18.59Z" fill="#e87d6f" stroke="#191919" stroke-miterlimit="10" stroke-width="0.25" fill-rule="evenodd"/><path d="M33.62,13.65C25,9.89,16.39,12.81,7.48,15.86,8.58,3.39,8.05,0,22.22.13c2.82.33,6.62,3.24,7,4.71.51,1,3.87,6.9,4.42,8.81Z" fill="#e87d6f" stroke="#191919" stroke-miterlimit="10" stroke-width="0.25" fill-rule="evenodd"/><path d="M17.86,14.93a.46.46,0,0,0-.48-.25c-.46.12-1.14-.69-2.34,0s-.83,1.69-1.17,2a.51.51,0,0,0,.45.8c.47-.13,1.14.69,2.34,0s.84-1.68,1.18-2A.47.47,0,0,0,17.86,14.93Zm-1.8.05a1.75,1.75,0,0,0-1.28.73.1.1,0,0,1-.15,0,.12.12,0,0,1-.05-.15h0a2,2,0,0,1,1.48-.85.11.11,0,0,1,.1.12A.12.12,0,0,1,16.06,15Z" fill="#dfc548" stroke="#191919" stroke-width="0.25"/><path d="M15.69,17a.45.45,0,0,0-.52-.12c-.42.25-1.28-.37-2.26.61s-.37,1.85-.61,2.26a.51.51,0,0,0,.65.65c.41-.24,1.27.37,2.25-.61s.37-1.85.61-2.26A.45.45,0,0,0,15.69,17ZM14,17.47a1.74,1.74,0,0,0-1,1.05.11.11,0,0,1-.14.08.1.1,0,0,1-.08-.13h0a2,2,0,0,1,1.21-1.21.11.11,0,0,1,.13.09A.11.11,0,0,1,14,17.47Z" fill="#dfc548" stroke="#191919" stroke-width="0.25"/><path d="M18.25,21a.46.46,0,0,0,.36-.4c0-.48,1-.92.6-2.26s-1.41-1.24-1.65-1.66a.45.45,0,0,0-.51-.16.46.46,0,0,0-.37.4c0,.48-1,.92-.6,2.26s1.41,1.24,1.65,1.66A.47.47,0,0,0,18.25,21Zm.42-1.75a1.73,1.73,0,0,0-.38-1.42.11.11,0,0,1,.15-.17h0a2,2,0,0,1,.44,1.65.11.11,0,0,1-.14.07A.1.1,0,0,1,18.67,19.27Z" fill="#dfc548" stroke="#191919" stroke-width="0.25"/></svg>