<svg xmlns="http://www.w3.org/2000/svg" viewBox="0 0 54.5 43.9"><path d="M14.35,0a1.4,1.4,0,0,0-.64.18L.68,7.71a1.34,1.34,0,0,0-.5,1.84h0l4.44,7.68a1.35,1.35,0,0,0,1.85.5h0l6.8-3.93V42.54a1.36,1.36,0,0,0,1.36,1.36H39.79a1.36,1.36,0,0,0,1.36-1.35h0V13.77l6.88,4a1.35,1.35,0,0,0,1.85-.49h0l4.44-7.69a1.34,1.34,0,0,0-.49-1.85h0L40.8.18A1.45,1.45,0,0,0,40,0H32.59c-.11.86-2.46,1.54-5.34,1.54S22,.86,21.91,0H14.35Z" fill="#dfc548"/><path d="M31,22.42a1.07,1.07,0,0,0-1.12-.59c-1.07.29-2.64-1.61-5.44,0s-1.94,3.93-2.74,4.71A1.18,1.18,0,0,0,22.8,28.4c1.08-.3,2.64,1.6,5.44,0s2-3.92,2.74-4.71A1.05,1.05,0,0,0,31,22.42Zm-4.19.1a4.1,4.1,0,0,0-3,1.72.27.27,0,0,1-.35.12A.28.28,0,0,1,23.4,24h0a4.55,4.55,0,0,1,3.44-2,.26.26,0,0,1,0,.52Z" fill="#e87d6f" stroke="#191919" stroke-miterlimit="10" stroke-width="0.25"/><path d="M26,27.15a1.06,1.06,0,0,0-1.23-.27c-1,.56-3-.87-5.26,1.42s-.86,4.29-1.42,5.26a1.18,1.18,0,0,0,1.51,1.5c1-.56,3,.87,5.25-1.42s.86-4.29,1.42-5.26A1.06,1.06,0,0,0,26,27.15Zm-4,1.19a4.14,4.14,0,0,0-2.43,2.43.26.26,0,0,1-.31.2.26.26,0,0,1-.2-.31v0a4.58,4.58,0,0,1,2.81-2.81.26.26,0,0,1,.31.21A.25.25,0,0,1,22,28.34Z" fill="#e87d6f" stroke="#191919" stroke-miterlimit="10" stroke-width="0.25"/><path d="M31.94,36.6a1.05,1.05,0,0,0,.85-.93c0-1.11,2.24-2.13,1.4-5.26s-3.29-2.89-3.84-3.86a1.18,1.18,0,0,0-2.06.55c0,1.12-2.24,2.14-1.4,5.27s3.29,2.89,3.84,3.85A1.07,1.07,0,0,0,31.94,36.6Zm1-4.07A4.11,4.11,0,0,0,32,29.21a.26.26,0,0,1,0-.37.27.27,0,0,1,.37,0v0a4.55,4.55,0,0,1,1,3.83.26.26,0,0,1-.33.17A.25.25,0,0,1,32.92,32.53Z" fill="#e87d6f" stroke="#191919" stroke-miterlimit="10" stroke-width="0.25"/><g style="isolation:isolate"><g style="isolation:isolate"><path d="M16.32,10.93,14.83,8.3h1.09L16.85,10l.9-1.71H18.8l-1.5,2.62v1.89h-1Z" fill="#191919"/><path d="M19.27,8.3h2.91v.89H20.23v.88h1.52v.87H20.23v1h2.09v.9H19.27Z" fill="#191919"/><path d="M23,8.3h1v3.61h2v.9H23Z" fill="#191919"/><path d="M26.55,8.3h1v3.61h2v.9h-3Z" fill="#191919"/><path d="M32,12.93a2.16,2.16,0,0,1-.88-.18,2.23,2.23,0,0,1-1.17-1.26,2.62,2.62,0,0,1-.17-.94,2.66,2.66,0,0,1,.17-.94,2.44,2.44,0,0,1,.47-.75,2.19,2.19,0,0,1,.7-.5A2.16,2.16,0,0,1,32,8.18a2.13,2.13,0,0,1,.88.18,2.19,2.19,0,0,1,.7.5,2.44,2.44,0,0,1,.47.75,2.66,2.66,0,0,1,.17.94,2.62,2.62,0,0,1-.17.94,2.23,2.23,0,0,1-1.17,1.26A2.13,2.13,0,0,1,32,12.93Zm0-1a1.07,1.07,0,0,0,.51-.12,1.13,1.13,0,0,0,.38-.31,1.61,1.61,0,0,0,.24-.45,1.93,1.93,0,0,0,0-1.1,1.61,1.61,0,0,0-.24-.45,1.1,1.1,0,0,0-.38-.3,1.24,1.24,0,0,0-1,0,1,1,0,0,0-.38.3,1.61,1.61,0,0,0-.24.45,1.93,1.93,0,0,0,0,1.1,1.61,1.61,0,0,0,.24.45,1,1,0,0,0,.38.31A1.07,1.07,0,0,0,32,12Z" fill="#191919"/><path d="M34.42,8.3h1l.63,3.27.74-3.15h.88l.75,3.15.62-3.27h1L39,12.81H38l-.73-3-.74,3h-1Z" fill="#191919"/></g></g><g style="isolation:isolate"><g style="isolation:isolate"><path d="M16.8,14.23h1v3.41h2v.86h-3Z" fill="#191919"/><path d="M20.37,14.23h2.92v.85H21.34v.83h1.51v.82H21.34v.92h2.09v.85H20.37Z" fill="#191919"/><path d="M24.21,14.23h.91l1.11,2,1.09-2h.92l.2,4.27h-1l-.12-2.79-.88,1.66H26L25,15.73l-.11,2.77H24Z" fill="#191919"/><path d="M31.25,18.61a2.16,2.16,0,0,1-.88-.18,2.1,2.1,0,0,1-.7-.47,2.31,2.31,0,0,1-.47-.71,2.41,2.41,0,0,1,0-1.78,2.27,2.27,0,0,1,.47-.7,2.13,2.13,0,0,1,.7-.48,2.34,2.34,0,0,1,.88-.17,2.3,2.3,0,0,1,.88.17,2.17,2.17,0,0,1,.71.48,2.24,2.24,0,0,1,.46.7,2.41,2.41,0,0,1,0,1.78,2.29,2.29,0,0,1-.46.71,2.3,2.3,0,0,1-1.59.65Zm0-.91a1.15,1.15,0,0,0,.89-.4,1.64,1.64,0,0,0,.24-.43,1.73,1.73,0,0,0,0-1,1.44,1.44,0,0,0-.24-.42,1.15,1.15,0,0,0-.89-.4,1.26,1.26,0,0,0-.51.11,1.1,1.1,0,0,0-.38.29,1.44,1.44,0,0,0-.24.42,1.73,1.73,0,0,0,0,1,1.64,1.64,0,0,0,.24.43,1.1,1.1,0,0,0,.38.29A1.26,1.26,0,0,0,31.25,17.7Z" fill="#191919"/><path d="M34.14,14.23h.92L36.9,17V14.23h1V18.5H37l-1.89-2.82V18.5h-1Z" fill="#191919"/></g></g></svg>