<svg xmlns="http://www.w3.org/2000/svg" width="54.807" height="95.468" viewBox="0 0 54.807 95.468">
  <g id="Layer_2" data-name="Layer 2" transform="translate(0 0.032)">
    <g id="Layer_1" data-name="Layer 1" transform="translate(0 -0.032)">
      <path id="Path_218" data-name="Path 218" d="M45.617,88.891a8.5,8.5,0,0,0,3.112,2.65,14.621,14.621,0,0,0,3.527,1.109c.165.035.329.069.494.118a.579.579,0,0,1,.453.537.569.569,0,0,0,.176.37.509.509,0,0,1-.165.848,4.483,4.483,0,0,1-1.094.318c-1.3.186-2.609.341-3.914.5-.249.03-.494.041-.747.063a12.752,12.752,0,0,1-4.134-.494c-.267-.067-.533-.14-.823-.217-.048.189-.094.364-.146.569a3.343,3.343,0,0,1-.461.035c-1.131-.064-2.26-.13-3.389-.214a3.291,3.291,0,0,1-.724-.174.347.347,0,0,1-.253-.4,3.276,3.276,0,0,1,.2-1.317.462.462,0,0,0,.03-.23,7.306,7.306,0,0,1,.515-2.882c-.063-.025-.117-.048-.173-.067s-.123-.036-.194-.056a1.051,1.051,0,0,1,.174-1.076.762.762,0,0,0,.118-.364c.087-.545.165-1.091.245-1.638a1.068,1.068,0,0,1,.479-.774c.658-.466.69-.525.342-1.261a2.154,2.154,0,0,1-.151-1.414,43.042,43.042,0,0,1,.974-4.509.055.055,0,0,1,.01-.038,8.654,8.654,0,0,0,.6-3.474,13.264,13.264,0,0,1,.351-2.337c.262-1.354.515-2.712.788-4.067.1-.5.255-.987.374-1.491a2.049,2.049,0,0,1,.584-1.011c.291-.283.286-.318.077-.675l-.061-.1c-.258-.42-.257-.426.127-.767-.043-.24-.092-.494-.132-.755-.081-.538-.021-.658.448-.925.092-.051.184-.1.311-.165-.109-.174-.212-.329-.313-.494a12.87,12.87,0,0,1-.778-1.41,8.3,8.3,0,0,0-.936-1.544,14.2,14.2,0,0,0-1.09-1.152c-.036.278-.061.518-.1.757-.295,2.016-.568,4.037-.9,6.048A4.279,4.279,0,0,1,38.49,67.5c-.589.671-1.185,1.338-1.766,2.019-.3.349-.573.719-.848,1.09-.227.306-.456.614-.658.941a3.26,3.26,0,0,1-1.567,1.386,1.949,1.949,0,0,0-.8.729c-1.117,1.547-2.258,3.076-3.384,4.618q-.823,1.116-1.6,2.255c-.23.329-.407.708-.634,1.043-.339.5-.676,1.006-1.058,1.481-.683.834-1.4,1.646-2.1,2.469a1,1,0,0,1-.685.349c-.115.012-.232.016-.38.028a6.569,6.569,0,0,0,.186,1.259,1.015,1.015,0,0,1-.8,1.251,2.021,2.021,0,0,0,.421.953,11.086,11.086,0,0,1,1.33,2.049,1.667,1.667,0,0,0,1.234.93c.7.137,1.386.309,2.075.482a1.539,1.539,0,0,1,.532.24.494.494,0,0,1,.2.359c-.023.365.365.678.109,1.076a.527.527,0,0,1-.494.311c-1.369-.031-2.737-.049-4.1-.084A5.284,5.284,0,0,1,20.849,93.7c-.643-.433-1.307-.836-1.975-1.239a6.34,6.34,0,0,0-.658-.306c-.051.1-.091.165-.118.229-.115.278-.183.316-.474.244a1.43,1.43,0,0,1-.26-.091q-1.736-.806-3.469-1.619a3.017,3.017,0,0,1-.278-.15c-.316-.191-.39-.337-.29-.685a1.656,1.656,0,0,1,.566-.928.637.637,0,0,0,.258-.416c.015-.077.038-.153.054-.23a2.864,2.864,0,0,1,1.121-1.883.886.886,0,0,0,.142-.165.857.857,0,0,0-.184-.1.379.379,0,0,1-.309-.4.458.458,0,0,1,.268-.486,1.469,1.469,0,0,0,.642-.612c.329-.471.718-.908,1.045-1.384.418-.607.8-1.236,1.2-1.856.341-.532.658-1.075,1.019-1.6.183-.27.421-.494.617-.765s.411-.576.6-.876a3.178,3.178,0,0,0,.263-.53,14.891,14.891,0,0,1,2.023-3.466c.724-.969,1.382-2,2.177-2.9a25.776,25.776,0,0,0,2.3-3.247,3.127,3.127,0,0,1,1.433-1.244c.41-.176.811-.375,1.216-.565.071-.3.145-.594.2-.889a.734.734,0,0,1,.639-.612,2.841,2.841,0,0,1,.306-.071,1.254,1.254,0,0,0,.935-.591c.076-.109.146-.219.225-.329a.36.36,0,0,0,.023-.471,1.619,1.619,0,0,1-.165-1.531,2.836,2.836,0,0,0,.059-.974,10.161,10.161,0,0,0-.311-2.1,1.81,1.81,0,0,1,.02-.737.9.9,0,0,0-.146-.7,4.524,4.524,0,0,1-.375-.693,1.939,1.939,0,0,1-.2-1.034,3.512,3.512,0,0,0-.181-1.361,1.152,1.152,0,0,0-.2-.38,47.7,47.7,0,0,1-3.5-5.061c-.576-.945-1.185-1.866-1.779-2.8-.1-.165-.2-.313-.3-.461a3.27,3.27,0,0,1-.627-2.039c0-.263-.013-.527-.013-.79a2.209,2.209,0,0,0-.263-1.1.806.806,0,0,1-.021-.785,1.249,1.249,0,0,0-.344-1.572,10.357,10.357,0,0,0-1.262-.872,1.754,1.754,0,0,0-.564-.151c-1.091-.222-1.294-.42-1.524-1.511-.035-.165-.066-.329-.107-.538a3.29,3.29,0,0,0-.329,0,1.736,1.736,0,0,1-1.689-.744c-.153-.214-.329-.416-.481-.625A4.045,4.045,0,0,0,16.688,33.8a4.608,4.608,0,0,1-.658-.561,5.113,5.113,0,0,0-.52-.482,2.962,2.962,0,0,1-1.027-1.465c-.082-.207-.165-.415-.242-.625a9.08,9.08,0,0,0-.987-2.011,1.753,1.753,0,0,1-.247-.573,1.117,1.117,0,0,0-.388-.667,2.358,2.358,0,0,1-.731-1.1,8.81,8.81,0,0,0-.808-1.708,9.945,9.945,0,0,1-.6-1.2.482.482,0,0,0-.383-.342,1.975,1.975,0,0,1-.385-.137c-.234.221-.43.428-.658.6a.364.364,0,0,0-.155.329,4.753,4.753,0,0,1-.262,1.667,6.025,6.025,0,0,0-.133.616,1.975,1.975,0,0,1-.092.342c-.143.329-.375.367-.594.089a2.574,2.574,0,0,1-.329-.537c-.249-.551-.494-1.106-.709-1.67a.494.494,0,0,0-.4-.365,6.074,6.074,0,0,0-2.161-.036A2.325,2.325,0,0,1,1.4,22.637,10.24,10.24,0,0,1,.227,19.1,16.264,16.264,0,0,1,0,16.709c0-1.19.1-1.249,1.05-1.718.882-.436,1.81-.774,2.722-1.152.072-.03.145-.054.244-.092v-.313c0-.749-.016-1.5-.01-2.25a2.189,2.189,0,0,1,.1-.581.244.244,0,0,1,.4-.165,1.361,1.361,0,0,1,.364.3,7.582,7.582,0,0,1,.611.823,2.1,2.1,0,0,1,.179.551c.066.237.123.477.188.729l.3-.026,1.3-.1a2.824,2.824,0,0,0,.393-.02,1.221,1.221,0,0,1,1.052.165.566.566,0,0,0,.637-.016c.239-.138.467-.295.7-.441.443-.278.586-.265.969.1.1.091.178.193.275.3.28-.069.545-.142.811-.2.379-.081.395-.071.625.3l.494-1.331c-.114-.6.329-.964.617-1.382a2.562,2.562,0,0,1,.407-.352c.105-.1.245-.184.291-.308.089-.232.283-.329.454-.474a2.4,2.4,0,0,0,.4-.357,9.727,9.727,0,0,0,1.5-2.5c.145-.392.25-.8.388-1.243l-.342.049a1.108,1.108,0,0,1-.071-.244,4.684,4.684,0,0,1,2-4.23,2.834,2.834,0,0,1,1.384-.545A1.656,1.656,0,0,1,21.9.5,2.469,2.469,0,0,0,22.345.8c.474.3.953.6,1.427.908.138.089.242.239.449.114.054-.033.184.059.309.105a3.891,3.891,0,0,1,.275-.349c.183-.2.316-.165.438.067a2.562,2.562,0,0,0,.207.306l-.206.578.739.494c.28-.25.329-.26.643-.058a5.3,5.3,0,0,1,.436.329c.082.063.156.165.247.181a.686.686,0,0,1,.523.541,1.178,1.178,0,0,1,.806.438,6.963,6.963,0,0,0,.885.683c.494-.308.706.135.987.38.466-.222.564-.207.905.137.472-.176.713.194,1,.459a1.833,1.833,0,0,1,1.015-.3.912.912,0,0,1,.308.046c.219.087.244.272.067.426-.115.1-.239.2-.357.293l.532.62c.217-.028.494-.071.783-.1a.658.658,0,0,1,.7.408c.123.229.27.444.4.658.275.023.523.058.772.061a.671.671,0,0,0,.329-.1.625.625,0,0,1,.706-.028.588.588,0,0,1,.293.635A2.27,2.27,0,0,0,38,9.221c.235.028.392-.258.555-.072a1.629,1.629,0,0,1,.207.471l-.084.064a4.261,4.261,0,0,0,.737.4c.179.058.306.1.37.291a.464.464,0,0,0,.184.191q.658.466,1.33.923c.286.2.3.191.512-.114L39.763,8.21a3.961,3.961,0,0,1-.625,0,3.068,3.068,0,0,1-.792-.219A.343.343,0,0,1,38.2,7.43a1.634,1.634,0,0,1,.428-.454,16.252,16.252,0,0,1,1.481-.9,10.592,10.592,0,0,1,4.75-1.183,3.155,3.155,0,0,1,.7.066.429.429,0,0,1,.278.741,4.04,4.04,0,0,1-.64.637c-.321.273-.362.357-.244.772a3.048,3.048,0,0,0,.658,1.208c.693.774,1.412,1.526,2.128,2.278a.379.379,0,0,0,.273.105,1.111,1.111,0,0,1,.826.3c.685.558,1.368,1.116,2.042,1.682.383.329.752.658,1.127.987a1.926,1.926,0,0,1,.532.823,1.389,1.389,0,0,0,.262.423c.255.285.525.555.793.823.138.14.281.273.431.4a1.221,1.221,0,0,1,.444.767c.059.377.114.752.179,1.127a5.818,5.818,0,0,1,.033,1.926.859.859,0,0,0,.028.382,1.822,1.822,0,0,1-1.891,2.37.64.64,0,0,0-.339.058,3.9,3.9,0,0,1-1.522.451c-.023.054-.081.123-.066.165.114.306-.061.481-.252.675a2.287,2.287,0,0,0-.276.43.257.257,0,0,1-.365.117,14.9,14.9,0,0,1-1.96-.8,1.162,1.162,0,0,0-.3-.064,2.178,2.178,0,0,1-.449-.133.4.4,0,0,1-.209-.589,3.128,3.128,0,0,1,.174-.306,1.759,1.759,0,0,1-.176-.308.222.222,0,0,1,.122-.295c.329-.165.329-.165.194-.494a.69.69,0,0,0-.059-.092.959.959,0,0,0-.4.444q-.262.553-.512,1.111a1.906,1.906,0,0,1-1.106,1.277c.165.347.355.693.513,1.05.217.494.41,1,.625,1.493a2.563,2.563,0,0,1,0,1.624.494.494,0,0,1-.227.252q-2.019,1.2-4.045,2.386c-.591.344-1.195.658-1.8.987-.68.372-1.363.741-2.044,1.113-.1.056-.2.12-.339.2l.237.267c.4.42.808.831,1.2,1.257a3.232,3.232,0,0,1,.658,1.116c.281.778.573,1.555.862,2.33a6.468,6.468,0,0,0,.709,1.358,20.828,20.828,0,0,1,1.076,1.883c.635,1.213,1.246,2.437,1.871,3.655a2.348,2.348,0,0,0,.242.357c.127.165.267.329.395.494a.772.772,0,0,1,.066,1.017,1.122,1.122,0,0,0-.076.148,2.4,2.4,0,0,0,.137.237,21.344,21.344,0,0,1,2.057,3.813c.823,1.949,1.7,3.881,2.536,5.824a36.714,36.714,0,0,1,1.583,5.038c.132.482.221.976.341,1.46a1.975,1.975,0,0,1-.064,1.1,12.616,12.616,0,0,1-1.317,2.9,1.842,1.842,0,0,0-.262.688c-.589,3.456-1.277,6.912-2.041,10.334-.329,1.5-.522,3.032-.774,4.549-.038.234-.069.469-.1.7a2.544,2.544,0,0,1-.757,1.481,1.011,1.011,0,0,0-.311.532.788.788,0,0,1-.444.52c-.3.189-.314.286-.1.566.127.165.276.318.4.484.234.3.234.425,0,.739a3.681,3.681,0,0,1-.26.3C45.812,88.7,45.726,88.779,45.617,88.891ZM22.091,2.31c-.252-.039-.461-.056-.658-.107a1.718,1.718,0,0,0-2.08.853A6.952,6.952,0,0,0,18.53,5.11a5.406,5.406,0,0,1-1,2.335c-.415.543-.8,1.111-1.178,1.68a6.85,6.85,0,0,0-.311.658,1.461,1.461,0,0,1-.263.42.971.971,0,0,0-.26.683c0,.117.165.244.245.369.013.018,0,.051.013.125a.955.955,0,0,1-.329.051,1.292,1.292,0,0,1-.329-.179c-.074.1-.225.219-.209.3a1.927,1.927,0,0,0,.281.494,1.327,1.327,0,0,1-.4.044c-.1-.021-.165-.13-.229-.179l-.974.9a.839.839,0,0,1,.367.772c.03.484.132.607.594.762a5.629,5.629,0,0,1,.6.225c.263.122.29.183.245.461-.015.092-.041.179-.063.27-.118.494-.225,1-.359,1.494a.693.693,0,0,0,.142.658c.311.372.632.737.955,1.1a.917.917,0,0,0,.864.367.775.775,0,0,1,.313.021,4.459,4.459,0,0,1,1.164.329.81.81,0,0,0,.79.069q3.95-1.358,7.916-2.7c.933-.318,1.87-.629,2.8-.945.165-.054.314-.1.388-.293.329-.859.667-1.713,1.011-2.594-.049-.094-.1-.214-.165-.329a2.013,2.013,0,0,1-.329-1.119q0-1.121,0-2.246a.339.339,0,0,1-.535.112c-.041-.028-.127-.058-.145-.039-.242.237-.395,0-.532-.12a5.51,5.51,0,0,1-.643-.685c-.176-.217-.286-.5-.688-.4l.2-.494-.91-.718c-.183.076-.369.165-.538-.03-.018-.02-.105.025-.165.028a.823.823,0,0,1-.138-.013c.03-.165-.364-.109-.2-.36.01-.015-.048-.092-.089-.114-.385-.212-.658-.607-1.109-.713a.276.276,0,0,1-.165-.2.458.458,0,0,0-.249-.329c-.3-.214-.594-.436-.9-.64a1.1,1.1,0,0,0-.387-.155c-.165-.033-.262-.1-.273-.278a.581.581,0,0,0-.051-.285c-.109-.143-.2,0-.3.053-.13.063-.25-.036-.2-.128.1-.183-.039-.313-.066-.494l.342.023.033-.072a4.758,4.758,0,0,0-.823-.591c-.174.2-.148.517-.513.658C21.9,2.816,21.991,2.577,22.091,2.31ZM40.185,16.579c-.69-.385-1.2-1.02-2-1.2-.258-.058-.3-.329-.105-.523.061-.059.132-.11.229-.191a3.92,3.92,0,0,0-1.014-.7l-.877.344c.044.035.11.092.181.143.591.434.594.385.339,1.09a.658.658,0,0,0-.013.1c.13.165.253.319.074.573-.691.976-1.336,1.985-2.041,2.951a3.281,3.281,0,0,0-.795,1.924,1.425,1.425,0,0,1-.288.716,7.515,7.515,0,0,0-1.055,2.319,2.037,2.037,0,0,1-.237.486,6.213,6.213,0,0,0-.41.754.691.691,0,0,1-.4.454,1.982,1.982,0,0,0-.706.546.52.52,0,0,0,.036.838,8.611,8.611,0,0,1,.643.581.935.935,0,0,0,.8.339,1.05,1.05,0,0,1,.594.153,1.06,1.06,0,0,0,1.017.046,19.731,19.731,0,0,1,2.163-.958,3.328,3.328,0,0,0,1.81-1.348,4.04,4.04,0,0,1,.9-.987,19.788,19.788,0,0,0,2.569-2.268c.255-.278.632-.472.806-.785a4.877,4.877,0,0,0,.278-1.142c.156-.637.329-1.271.494-1.9-.245-.393-.6-.351-.987-.257-.053.224-.094.443-.165.658a.278.278,0,0,1-.176.165c-.135.012-.155-.114-.155-.222a.951.951,0,0,1,.026-.275c.1-.3.206-.6.3-.89-.125-.018-.28-.044-.433-.066a.571.571,0,0,1-.555-.56.359.359,0,0,0-.165-.237c-.216-.123-.448-.216-.673-.329-.035-.016-.066-.039-.112-.066a1.843,1.843,0,0,0,.107-.265ZM28.093,20.261a.583.583,0,0,1,.458-.752c.082-.021.145-.138.207-.219q.252-.329.494-.658a1.233,1.233,0,0,0,.221-.349c.143-.505.267-1.017.393-1.527a1.645,1.645,0,0,0,.012-.24L19.838,20.238v.092a4.7,4.7,0,0,0,.588.283c.9.3,1.8.6,2.7.866a3.194,3.194,0,0,0,1.081.15,6.089,6.089,0,0,0,1.317-.262,1.7,1.7,0,0,1,1.522.053c.044-.308.207-.415.441-.321C27.715,20.81,27.595,20.333,28.093,20.261Zm22.972-1.587-1.593-1.289c-.091.244-.153.415-.212.573.311.329.609.607.574,1.07a.155.155,0,0,0,.082.12.882.882,0,0,1,.459.578C50.907,19.66,51.134,19.306,51.065,18.674ZM34.352,13.116c.443.189.823.494,1.246.658a1.522,1.522,0,0,1,.063-.4,1.55,1.55,0,0,1,.26-.3c-.456-.29-.757-.788-1.364-.568Zm5.09-2.408c-.165.245-.316.466-.472.693a6.107,6.107,0,0,1,.714.387.383.383,0,0,0,.494.018.882.882,0,0,1,.622-.155Zm-20.3-9.677a.311.311,0,0,0-.377.043,2.757,2.757,0,0,0-.537.581c-.239.388-.434.8-.635,1.215a3.9,3.9,0,0,0-.165.461c.26.087.316-.053.365-.216a3.7,3.7,0,0,1,.777-1.394C18.762,1.507,18.941,1.278,19.142,1.032ZM42.183,11.787c-.2.142-.1.242.033.329q1.407.973,2.819,1.939c.038.026.1.016.153.023l.026-.061Zm-.362.569-.074.072c.041.066.066.156.125.194.374.239.755.467,1.134.7a.6.6,0,0,1,.127.082,8.111,8.111,0,0,0,1.74,1.2c-.018-.091-.013-.14-.033-.155q-1.5-1.052-3.013-2.1Zm-3.752-2.6c.012.375.385.316.479.556l-.581-.209c.263.329.462.573.688.853.076-.222.143-.423.219-.643Zm11.246,1.954c-.153.225-.165.234-.044.329.178.155.365.3.555.443.133.1.237.053.329-.091A2.3,2.3,0,0,0,49.314,11.713ZM25.646,5.059c-.249-.221-.438-.543-.854-.51-.046-.155-.054-.346-.319-.362.03.1.026.24.089.281C24.9,4.7,25.18,5.039,25.646,5.059Zm21.8,17.791.576-.1a1.111,1.111,0,0,1-.069-.3c.008-.067.081-.127.128-.2C47.676,22.124,47.584,22.209,47.444,22.85ZM45.02,15.114l.239.556h-.592l.566.36c.092-.234.165-.421.244-.624Zm.123-.382a2.637,2.637,0,0,0,1.359.882,11.487,11.487,0,0,0-1.359-.9Zm5.382-1.978c.02.125,0,.257.058.308a2.622,2.622,0,0,0,.757.551,1.68,1.68,0,0,0-.815-.859Zm-3.631,2.551a4.478,4.478,0,0,0-1.417-.987,14.411,14.411,0,0,0,1.409.987Zm2.419,8.14c.428.382.6.415.853.174-.278-.076-.5-.276-.861-.174ZM20.1.408C19.71.444,19.66.5,19.683.9,19.81.683,20.151.773,20.1.408ZM36.979,13.878l-.443-.321-.072.043c.026.146.051.295.084.477ZM17.383,3.791a.8.8,0,0,0,.053.731C17.481,4.293,17.7,4.061,17.383,3.791ZM48.965,23.878a1.054,1.054,0,0,0,.7.423A.708.708,0,0,0,48.965,23.878Zm-28-23.37a.741.741,0,0,0-.592-.091C20.521.676,20.539.679,20.961.508ZM49.811,23.1c.064.244.27.2.413.25.044.015.114-.046.221-.094A.882.882,0,0,0,49.811,23.1Zm-1,.051c-.456-.383-.535-.4-.648-.127ZM40.651,13.113c.247-.263.252-.309.067-.579C40.68,12.728,40.486,12.871,40.651,13.113Zm-3.385-4.72c-.028.262.165.295.342.377C37.616,8.444,37.6,8.421,37.265,8.393Zm10.077,14.95c.267.253.267.253.509.091a.479.479,0,0,0-.509-.091Zm.732-6.529.074-.084-.573-.387-.049.074a1.127,1.127,0,0,0,.548.4Zm-7.406-4.592-.058-.11-.472-.046.255.318Zm9.671,11.511c-.151.262-.151.262-.066.494.181-.123.221-.263.072-.489ZM39.08,15.244c-.028.229.089.295.306.28C39.387,15.3,39.222,15.279,39.08,15.244ZM21.033.284l.535.329.043-.072a.658.658,0,0,0-.578-.257ZM48.654,22.45c.033.3.033.3.347.263ZM47.2,16.266l.091-.11-.39-.285-.059.077ZM36.064,13.65l.308-.28c-.273-.038-.329.061-.308.276Zm11.311,3.377h.091a.591.591,0,0,0,.023-.224c0-.03-.114-.033-.222-.061ZM23.4,3.322l-.071.094.369.262L23.76,3.6Zm14.341,6.43.072-.074c-.016-.165-.122-.219-.375-.207Zm9.684,5.956.049-.064-.191-.1-.03.053Z" transform="translate(0 0.032)" fill="#fafafa"/>
    </g>
  </g>
</svg>
